<?xml version="1.0" encoding="iso-8859-1"?>
<!-- Generator: Adobe Illustrator 19.0.0, SVG Export Plug-In . SVG Version: 6.00 Build 0)  -->
<svg version="1.1" id="Layer_1" xmlns="http://www.w3.org/2000/svg" xmlns:xlink="http://www.w3.org/1999/xlink" x="0px" y="0px"
	 viewBox="0 0 512 512" style="enable-background:new 0 0 512 512;" xml:space="preserve">
<g>
	<path style="fill:#D1392A;" d="M403.809,69.323H108.191c-15.722,0-28.467-12.745-28.467-28.467V10.199h352.552v30.657
		C432.276,56.578,419.531,69.323,403.809,69.323z"/>
	<path style="fill:#D1392A;" d="M108.191,442.677h295.618c15.722,0,28.467,12.745,28.467,28.467v30.657H79.724v-30.657
		C79.724,455.422,92.469,442.677,108.191,442.677z"/>
</g>
<path style="fill:#EDEDED;" d="M383.316,391.063C367.389,313.377,316.42,256.548,256,256.548s-111.389,56.829-127.316,134.516
	L256,346.327L383.316,391.063z"/>
<path style="fill:#FFBC52;" d="M388.481,442.677c0-17.909-1.805-35.224-5.165-51.614L256,346.327l-127.316,44.736
	c-3.36,16.39-5.165,33.705-5.165,51.614L388.481,442.677L388.481,442.677z"/>
<path style="fill:#EDEDED;" d="M388.481,69.323H123.519c0,42.894,10.334,82.391,27.685,113.868h209.591
	C378.147,151.714,388.481,112.217,388.481,69.323z"/>
<path style="fill:#FFBC52;" d="M151.204,183.19c24.232,43.958,62.159,72.262,104.796,72.262s80.564-28.305,104.796-72.262H151.204z"
	/>
<path d="M256,324.775c-5.632,0-10.199-4.566-10.199-10.199v-2.19c0-5.633,4.567-10.199,10.199-10.199
	c5.632,0,10.199,4.566,10.199,10.199v2.19C266.199,320.209,261.632,324.775,256,324.775z"/>
<path d="M369.725,188.118c0.001-0.001,0.001-0.002,0.002-0.003c17.449-31.651,27.313-69.008,28.76-108.593h5.322
	c21.32,0,38.666-17.346,38.666-38.666V10.199C442.475,4.566,437.908,0,432.276,0H79.724c-5.632,0-10.199,4.566-10.199,10.199v30.657
	c0,21.32,17.346,38.666,38.666,38.666h5.322c1.447,39.584,11.311,76.94,28.759,108.592c17.869,32.412,41.919,55.728,69.124,67.894
	c-15.489,6.955-30.046,17.594-43.201,31.712c-23.758,25.498-41.337,61.472-49.502,101.294c0,0,0,0.001,0,0.002
	c-2.899,14.139-4.614,28.718-5.163,43.462h-5.339c-21.32,0-38.666,17.346-38.666,38.666v30.656c0,5.633,4.567,10.199,10.199,10.199
	h352.552c5.632,0,10.199-4.566,10.199-10.199v-30.657c0-21.32-17.346-38.666-38.666-38.666h-5.339
	c-0.549-14.743-2.264-29.323-5.163-43.462v-0.001c-8.164-39.824-25.744-75.797-49.502-101.295
	c-13.155-14.119-27.712-24.757-43.201-31.712C327.809,243.843,351.857,220.528,369.725,188.118z M89.923,40.856V20.398h332.153
	v20.458c0,10.073-8.195,18.268-18.268,18.268h-15.327H123.518h-15.327C98.118,59.124,89.923,50.929,89.923,40.856z M133.919,79.522
	h244.164c-1.337,33.934-9.352,65.949-23.417,93.47H157.336C143.269,145.47,135.255,113.456,133.919,79.522z M422.077,471.144v20.458
	H89.923v-20.458c0-10.073,8.195-18.268,18.268-18.268h15.327h264.962h15.327C413.882,452.876,422.077,461.071,422.077,471.144z
	 M378.077,432.478H133.923c0.459-11.414,1.687-22.706,3.671-33.734l34.059-11.968L256,357.138l84.348,29.638l34.059,11.968
	C376.39,409.771,377.618,421.064,378.077,432.478z M368.894,375.185l-109.513-38.481c-1.094-0.385-2.238-0.576-3.381-0.576
	c-1.143,0-2.287,0.192-3.381,0.576l-109.513,38.481c17.511-60.201,57.435-102.261,102.695-107.807v14.352
	c0,5.633,4.567,10.199,10.199,10.199c5.632,0,10.199-4.566,10.199-10.199v-14.352C311.459,272.924,351.383,314.984,368.894,375.185z
	 M256,245.253c-32.765,0-63.606-18.684-86.528-51.864h173.055C319.606,226.569,288.766,245.253,256,245.253z"/>
<path d="M248.245,113.463h-86.404c-5.632,0-10.199-4.566-10.199-10.199c0-5.633,4.567-10.199,10.199-10.199h86.405
	c5.632,0,10.199,4.566,10.199,10.199C258.445,108.897,253.878,113.463,248.245,113.463z"/>
<path d="M293.448,113.463h-10.93c-5.632,0-10.199-4.566-10.199-10.199c0-5.633,4.567-10.199,10.199-10.199h10.93
	c5.632,0,10.199,4.566,10.199,10.199C303.648,108.897,299.08,113.463,293.448,113.463z"/>
<g>
</g>
<g>
</g>
<g>
</g>
<g>
</g>
<g>
</g>
<g>
</g>
<g>
</g>
<g>
</g>
<g>
</g>
<g>
</g>
<g>
</g>
<g>
</g>
<g>
</g>
<g>
</g>
<g>
</g>
</svg>
