<?xml version="1.0" encoding="iso-8859-1"?>
<!-- Generator: Adobe Illustrator 19.0.0, SVG Export Plug-In . SVG Version: 6.00 Build 0)  -->
<svg version="1.1" id="Capa_1" xmlns="http://www.w3.org/2000/svg" xmlns:xlink="http://www.w3.org/1999/xlink" x="0px" y="0px"
	 viewBox="0 0 512 512" style="enable-background:new 0 0 512 512;" xml:space="preserve">
<path style="fill:#FBC640;" d="M260.655,261.838H13.788C6.173,261.838,0,255.665,0,248.05V14.971C0,7.356,6.173,1.183,13.788,1.183
	h233.079c7.615,0,13.788,6.173,13.788,13.788V261.838z"/>
<path style="fill:#F9A638;" d="M260.655,261.838V92.429h-75.104c-50.777,0-91.94,41.163-91.94,91.94v77.469H260.655z"/>
<path style="fill:#F77A3C;" d="M305.707,380.49H196.983c-41.955,0-75.966-34.011-75.966-75.966V195.8
	c0-41.955,34.011-75.966,75.966-75.966h108.724c41.955,0,75.966,34.011,75.966,75.966v108.724
	C381.672,346.479,347.662,380.49,305.707,380.49z"/>
<path style="fill:#E25A3B;" d="M381.673,218.549L381.673,218.549c-89.437,0-161.94,72.503-161.94,161.94l0,0h85.975
	c41.955,0,75.966-34.011,75.966-75.966v-85.974H381.673z"/>
<path style="fill:#F35FAE;" d="M381.673,510.817L381.673,510.817c-71.978,0-130.328-58.35-130.328-130.327l0,0
	c0-71.978,58.35-130.327,130.327-130.327l0,0C453.65,250.162,512,308.512,512,380.49l0,0
	C512,452.468,453.65,510.817,381.673,510.817z"/>
<g>
</g>
<g>
</g>
<g>
</g>
<g>
</g>
<g>
</g>
<g>
</g>
<g>
</g>
<g>
</g>
<g>
</g>
<g>
</g>
<g>
</g>
<g>
</g>
<g>
</g>
<g>
</g>
<g>
</g>
</svg>
