<svg xmlns="http://www.w3.org/2000/svg" xmlns:xlink="http://www.w3.org/1999/xlink" viewBox="0 0 500 500">
  <defs>
    <style>
      .a {
        fill: none;
      }

      .b {
        clip-path: url(#a);
      }

      .c {
        fill: #242d3c;
      }

      .d {
        fill: #21d8de;
      }

      .e {
        fill: #ff6d3b;
      }

      .f {
        fill: #90a38d;
      }

      .g {
        fill: #ffd55c;
      }

      .h {
        fill: #90d79d;
      }

      .i {
        fill: #ffa14c;
      }

      .j {
        fill: #fff;
      }

      .k {
        fill: #e6e5e5;
      }

      .l {
        fill: #ff642f;
      }

      .m {
        fill: #c94927;
      }

      .n {
        fill: #cfcecd;
      }
    </style>
    <clipPath id="a">
      <circle class="a" cx="250" cy="250" r="245"/>
    </clipPath>
  </defs>
  <title>illustration</title>
  <g class="b">
    <circle class="c" cx="250" cy="250" r="245"/>
    <g>
      <path class="d" d="M305.66,260.56a91.73,91.73,0,0,1-10.52,7.06,91,91,0,0,1-47,78.91,91.06,91.06,0,1,0,92.62-156.77A90.85,90.85,0,0,1,305.66,260.56Z"/>
      <path class="e" d="M248.11,346.53A91.06,91.06,0,0,1,204.85,268a91,91,0,0,1-46.16-80,91,91,0,0,0,89.42,158.6Z"/>
      <path class="f" d="M295.15,267.62a91.13,91.13,0,0,1-90.29.36,91.06,91.06,0,0,0,43.26,78.55,91,91,0,0,0,47-78.91Z"/>
      <path class="g" d="M251.89,189.29a91.15,91.15,0,0,1,88.84.48,91,91,0,1,0-182-1.83A91.13,91.13,0,0,1,251.89,189.29Z"/>
      <path class="h" d="M251.89,189.29a91.05,91.05,0,0,1,43.26,78.33,90.85,90.85,0,0,0,45.58-77.86A91.15,91.15,0,0,0,251.89,189.29Z"/>
      <path class="i" d="M204.85,268a91,91,0,0,1,47-78.69,91.13,91.13,0,0,0-93.2-1.36,91,91,0,0,0,46.16,80Z"/>
      <path class="j" d="M295.15,267.62a91.05,91.05,0,0,0-43.26-78.33,91,91,0,0,0-47,78.69A91.13,91.13,0,0,0,295.15,267.62Z"/>
    </g>
    <g>
      <path class="k" d="M255.48,261.8v92.64a17.15,17.15,0,1,1-11.43,0V261.8L186.56,362.33l29,69.88H284l29-69.88Z"/>
      <rect class="l" x="215.21" y="443.99" width="69.19" height="51.14"/>
      <rect class="m" x="207.69" y="431.96" width="84.23" height="19.55"/>
      <path class="n" d="M255.48,354.44a17.14,17.14,0,0,1-5.72,33.31,17.32,17.32,0,0,1-1.87-.11v44.57H284l29-69.88L255.48,261.8Z"/>
    </g>
  </g>
</svg>
